<?xml version="1.0" encoding="utf-8"?>
<!-- Generator: Adobe Illustrator 23.0.1, SVG Export Plug-In . SVG Version: 6.00 Build 0)  -->
<svg version="1.1" id="Layer_1" xmlns="http://www.w3.org/2000/svg" xmlns:xlink="http://www.w3.org/1999/xlink" x="0px" y="0px"
	 viewBox="0 0 407.6 96.1" style="enable-background:new 0 0 407.6 96.1;" xml:space="preserve">
<style type="text/css">
	.st0{fill:#FFFFFF;}
</style>
<g id="Layer_x0020_1">
	<path class="st0" d="M318.6,14.4h-47.3V19h-18.1V0h65.4V14.4z M271.3,23.4H298v12.5h-26.7v9h47.3v14.3h-65.4V23.4H271.3z"/>
	<path class="st0" d="M222.8,59.2h-56.1V23h18.1h18.7h13.1c1.5,0,2.7-0.4,3.5-1.2c0.8-0.8,1.2-2,1.2-3.6c0-1.4-0.4-2.6-1.3-3.5
		c-0.9-0.9-2-1.4-3.4-1.4h-31.8v5.4h-18.1V0H220c6.6,0,11.6,1.4,14.9,4.1c3.2,2.7,4.9,6.9,4.9,12.4c0,3.1-0.7,5.7-2.1,7.8
		c-1.4,2-3.6,3.6-6.6,4.7c3.7,0.6,6.5,2,8.2,4.3c1.7,2.3,2.6,5.5,2.6,9.8c0,5.6-1.5,9.7-4.5,12.2C234.3,57.9,229.5,59.2,222.8,59.2z
		 M218.2,45.8c1.6,0,2.8-0.5,3.7-1.4c0.9-1,1.3-2.3,1.3-4.1c0-1.6-0.5-2.8-1.4-3.8c-0.9-0.9-2.1-1.4-3.6-1.4h-33.4v10.7H218.2z"/>
	<polygon class="st0" points="86.9,59.2 67.2,59.2 99.5,0 122.6,0 154.3,59.2 134.5,59.2 128.8,49.4 97.6,49.4 104.4,35.1 
		122.3,35.1 110.8,14.2 	"/>
	<path class="st0" d="M64.7,14.4H18.1v6.2H0V0h64.7V14.4z M18.1,25H62v14.3H18.1v19.9H0V25H18.1z"/>
	<path class="st0" d="M381.9,26.6L407.6,0h-23.5l-13.6,14.4l11.2,12L381.9,26.6z M364.7,14.4L351.1,0h-23.5l25.8,26.6l0.1-0.1
		L364.7,14.4z"/>
	<path class="st0" d="M353.5,32.5l14.1-15.1l14.1,15.1l25.9,26.7h-23.5l-16.5-17.4l-0.1,0.1l-0.1-0.1l-16.5,17.4h-23.5L353.5,32.5z
		 M342.1,53.1h6.3l19.1-20.2l0.1,0.1l0.1-0.1l19.1,20.2h6.3l-15.8-16.3l-9.7-10.4l-9.7,10.4L342.1,53.1z"/>
	<path class="st0" d="M16.4,81h-12v3.9h11.4c1.8,0,3,0.3,3.6,0.9c0.6,0.6,0.9,1.8,0.9,3.4v2.5c0,1.7-0.3,2.8-0.9,3.4
		c-0.6,0.6-1.8,0.9-3.6,0.9H4.6c-1.8,0-3-0.3-3.6-0.9C0.3,94.6,0,93.5,0,91.8v-0.5l3.7-0.8v2.2h12.9v-4.2H5.3c-1.8,0-3-0.3-3.6-0.9
		c-0.6-0.6-0.9-1.7-0.9-3.4v-2c0-1.7,0.3-2.8,0.9-3.4c0.6-0.6,1.8-0.9,3.6-0.9h10.4c1.7,0,2.9,0.3,3.6,0.9c0.7,0.6,1,1.6,1,3.1v0.4
		l-3.8,0.9V81z M37.8,81.1v15h-4.3v-15h-8.4v-3.3h21.1v3.3H37.8z M51.4,96.1V77.8h18.7V81H55.7V85h8.4v3.1h-8.4v4.5h14.6v3.4H51.4z
		 M78.2,96.1V77.8h18.7V81H82.4V85h8.4v3.1h-8.4v4.5h14.6v3.4H78.2z M104.9,96.1V77.8h4.3v14.9h13.7v3.4H104.9z M158.7,81h-12v3.9
		h11.4c1.8,0,3,0.3,3.6,0.9s0.9,1.8,0.9,3.4v2.5c0,1.7-0.3,2.8-0.9,3.4c-0.6,0.6-1.9,0.9-3.6,0.9h-11.3c-1.8,0-3-0.3-3.6-0.9
		c-0.6-0.6-0.9-1.8-0.9-3.4v-0.5l3.7-0.8v2.2h12.9v-4.2h-11.4c-1.8,0-3-0.3-3.6-0.9c-0.6-0.6-0.9-1.7-0.9-3.4v-2
		c0-1.7,0.3-2.8,0.9-3.4c0.6-0.6,1.8-0.9,3.6-0.9h10.4c1.7,0,2.9,0.3,3.6,0.9c0.7,0.6,1,1.6,1,3.1v0.4l-3.8,0.9V81z M180,81.1v15
		h-4.3v-15h-8.4v-3.3h21.1v3.3H180z M207.4,81h-9.6v5.1h9.6c0.7,0,1.2-0.1,1.5-0.3c0.3-0.2,0.4-0.6,0.4-1.2v-2.2
		c0-0.5-0.1-0.9-0.4-1.1C208.7,81.1,208.2,81,207.4,81z M193.7,96.1V77.8h15.6c1.5,0,2.5,0.3,3.2,0.8c0.7,0.6,1,1.5,1,2.7v4.3
		c0,1.2-0.3,2.1-1,2.7c-0.6,0.6-1.7,0.8-3.2,0.8h-2.4l8.5,6.9h-6.1l-7.4-6.9h-4v6.9H193.7z M226.3,77.8v14.9h12.1V77.8h4.3v14
		c0,1.7-0.3,2.8-0.9,3.4c-0.6,0.6-1.8,0.9-3.6,0.9h-11.6c-1.8,0-3-0.3-3.6-0.9c-0.6-0.6-0.9-1.7-0.9-3.4v-14H226.3z M267.4,81.1
		h-11.5v11.6h11.5v-3.9l4.3,0.9v2.2c0,1.7-0.3,2.8-0.9,3.4c-0.6,0.6-1.8,0.9-3.6,0.9h-10.9c-1.8,0-3-0.3-3.6-0.9
		c-0.6-0.6-0.9-1.7-0.9-3.4v-9.6c0-1.7,0.3-2.8,0.9-3.4c0.6-0.6,1.8-0.9,3.6-0.9h10.9c1.8,0,3,0.3,3.6,0.9c0.6,0.6,0.9,1.8,0.9,3.4
		v1.7l-4.3,0.7V81.1z M289,81.1v15h-4.3v-15h-8.4v-3.3h21.1v3.3H289z M306.9,77.8v14.9H319V77.8h4.3v14c0,1.7-0.3,2.8-0.9,3.4
		c-0.6,0.6-1.8,0.9-3.6,0.9h-11.6c-1.8,0-3-0.3-3.6-0.9c-0.6-0.6-1-1.7-1-3.4v-14H306.9z M346.4,81h-9.6v5.1h9.6
		c0.7,0,1.2-0.1,1.5-0.3c0.3-0.2,0.4-0.6,0.4-1.2v-2.2c0-0.5-0.1-0.9-0.4-1.1C347.6,81.1,347.1,81,346.4,81z M332.6,96.1V77.8h15.6
		c1.5,0,2.5,0.3,3.2,0.8s1,1.5,1,2.7v4.3c0,1.2-0.3,2.1-1,2.7c-0.6,0.6-1.7,0.8-3.2,0.8h-2.4l8.5,6.9h-6.1l-7.4-6.9h-4v6.9H332.6z
		 M361,96.1V77.8h18.7V81h-14.5V85h8.4v3.1h-8.4v4.5h14.6v3.4H361z M403.6,81h-12v3.9H403c1.8,0,3,0.3,3.6,0.9s0.9,1.8,0.9,3.4v2.5
		c0,1.7-0.3,2.8-0.9,3.4c-0.6,0.6-1.9,0.9-3.6,0.9h-11.3c-1.8,0-3-0.3-3.6-0.9c-0.6-0.6-0.9-1.8-0.9-3.4v-0.5l3.7-0.8v2.2h12.9v-4.2
		h-11.4c-1.8,0-3-0.3-3.6-0.9c-0.6-0.6-0.9-1.7-0.9-3.4v-2c0-1.7,0.3-2.8,0.9-3.4c0.6-0.6,1.8-0.9,3.6-0.9h10.4
		c1.7,0,2.9,0.3,3.6,0.9c0.7,0.6,1,1.6,1,3.1v0.4l-3.8,0.9V81z"/>
</g>
</svg>
